<mxfile host="app.diagrams.net" modified="2023-06-25T08:43:11.677Z" agent="Mozilla/5.0 (Windows NT 10.0; Win64; x64) AppleWebKit/537.36 (KHTML, like Gecko) Chrome/113.0.0.0 Safari/537.36" etag="mxBzKLv75HW6_IRUb5M_" version="21.4.0" type="github">
  <diagram id="PnP3ODJL_Z0Urigxx_61" name="第 1 页">
    <mxGraphModel dx="1173" dy="499" grid="1" gridSize="10" guides="1" tooltips="1" connect="1" arrows="1" fold="1" page="1" pageScale="1" pageWidth="827" pageHeight="1169" math="0" shadow="0">
      <root>
        <mxCell id="0" />
        <mxCell id="1" parent="0" />
        <mxCell id="QhrNZY7RJF_LfjgAWxW2-1" value="INode" style="swimlane;fontStyle=0;childLayout=stackLayout;horizontal=1;startSize=30;horizontalStack=0;resizeParent=1;resizeParentMax=0;resizeLast=0;collapsible=1;marginBottom=0;whiteSpace=wrap;html=1;" vertex="1" parent="1">
          <mxGeometry x="200" y="130" width="270" height="240" as="geometry">
            <mxRectangle x="290" y="200" width="70" height="30" as="alternateBounds" />
          </mxGeometry>
        </mxCell>
        <mxCell id="QhrNZY7RJF_LfjgAWxW2-2" value="+NUM_DIRECT_ADDRESS:&amp;nbsp;static const int&lt;br&gt;&lt;br&gt;" style="text;strokeColor=none;fillColor=none;align=left;verticalAlign=middle;spacingLeft=4;spacingRight=4;overflow=hidden;points=[[0,0.5],[1,0.5]];portConstraint=eastwest;rotatable=0;whiteSpace=wrap;html=1;" vertex="1" parent="QhrNZY7RJF_LfjgAWxW2-1">
          <mxGeometry y="30" width="270" height="120" as="geometry" />
        </mxCell>
        <mxCell id="QhrNZY7RJF_LfjgAWxW2-3" value="Item 2" style="text;strokeColor=none;fillColor=none;align=left;verticalAlign=middle;spacingLeft=4;spacingRight=4;overflow=hidden;points=[[0,0.5],[1,0.5]];portConstraint=eastwest;rotatable=0;whiteSpace=wrap;html=1;" vertex="1" parent="QhrNZY7RJF_LfjgAWxW2-1">
          <mxGeometry y="150" width="270" height="90" as="geometry" />
        </mxCell>
      </root>
    </mxGraphModel>
  </diagram>
</mxfile>
